<?xml version="1.0" encoding="UTF-8"?>
<svg version="1.1" xmlns="http://www.w3.org/2000/svg" width="512" height="512">
<path d="M0 0 C0.99902344 -0.01933594 1.99804688 -0.03867188 3.02734375 -0.05859375 C9.08688942 0.93183392 13.23345666 5.3585446 17.43359375 9.578125 C17.91901138 10.06400085 18.40442902 10.54987671 18.90455627 11.05047607 C19.92451311 12.07343438 20.94205854 13.09880225 21.95727539 14.12646484 C23.48734115 15.6746909 25.02516025 17.21485946 26.56445312 18.75390625 C31.31732098 23.52438623 35.93415075 28.35904888 40.31665039 33.47558594 C43.87683139 37.47637107 47.7470977 41.18237262 51.5625 44.9375 C56.65210926 49.94670469 61.59254601 54.97772781 66.24414062 60.39648438 C69.83092688 64.42246894 73.72102822 68.15671498 77.5625 71.9375 C82.65210926 76.94670469 87.59254601 81.97772781 92.24414062 87.39648438 C95.83092688 91.42246894 99.72102822 95.15671498 103.5625 98.9375 C108.65210926 103.94670469 113.59254601 108.97772781 118.24414062 114.39648438 C121.83092688 118.42246894 125.72102822 122.15671498 129.5625 125.9375 C134.76879936 131.06155134 139.83905853 136.20854346 144.59716797 141.75390625 C146.77934338 144.26111745 149.1663032 146.51934649 151.58203125 148.796875 C154.84034496 152.4076712 155.37632268 155.50396301 155.4375 160.3125 C155.46585938 161.32054687 155.49421875 162.32859375 155.5234375 163.3671875 C154.58319102 169.63018526 150.14771745 173.57028883 145.75 177.8125 C142.61534766 180.84430355 139.64063806 183.88586007 136.80078125 187.1953125 C131.87371617 192.89225254 126.45452129 198.09116625 121.08984375 203.37109375 C117.45910828 206.96686227 113.89192643 210.55896956 110.5625 214.4375 C105.73117614 220.06562757 100.37252622 225.17186598 95.08984375 230.37109375 C91.45910828 233.96686227 87.89192643 237.55896956 84.5625 241.4375 C79.73117614 247.06562757 74.37252622 252.17186598 69.08984375 257.37109375 C65.45910828 260.96686227 61.89192643 264.55896956 58.5625 268.4375 C53.73117614 274.06562757 48.37252622 279.17186598 43.08984375 284.37109375 C38.84546167 288.57459896 34.78554032 292.83964976 30.89404297 297.37011719 C27.2236761 301.51310128 23.28601746 305.39844368 19.375 309.3125 C18.53388672 310.16585938 17.69277344 311.01921875 16.82617188 311.8984375 C16.01341797 312.713125 15.20066406 313.5278125 14.36328125 314.3671875 C13.26753784 315.46909424 13.26753784 315.46909424 12.1496582 316.59326172 C7.40691165 320.78401005 3.21620829 320.92925991 -2.953125 320.81640625 C-7.26494079 320.26896367 -10.15092358 318.77518207 -12.9375 315.4375 C-15.7098682 310.76866051 -16.30573523 307.36611547 -16.27807617 301.96337891 C-16.27851425 301.24073853 -16.27895233 300.51809814 -16.27940369 299.77355957 C-16.2773266 297.40344488 -16.25404777 295.03405242 -16.23046875 292.6640625 C-16.22486893 291.01354356 -16.22060065 289.36301962 -16.21760559 287.7124939 C-16.20618717 283.38216222 -16.17674613 279.05213555 -16.14349365 274.72192383 C-16.11272778 270.29773076 -16.09908636 265.87348811 -16.08398438 261.44921875 C-16.05187329 252.77850634 -16.00071364 244.10804118 -15.9375 235.4375 C-20.83573654 235.55097155 -25.7337654 235.67078962 -30.63171387 235.79608154 C-32.29231723 235.83771506 -33.95296239 235.87771866 -35.61364746 235.91595459 C-80.10322767 236.94583705 -120.72188215 249.0665714 -154.9375 278.4375 C-156.18660156 279.50097656 -156.18660156 279.50097656 -157.4609375 280.5859375 C-171.99753889 293.28826742 -183.62894876 308.00534453 -192.86669922 324.91967773 C-200.43278904 338.74042472 -200.43278904 338.74042472 -206.9375 341.4375 C-212.83870516 343.02628601 -217.58943145 342.2417307 -222.9375 339.4375 C-226.0588836 336.656362 -228.80770462 333.4431852 -229.08467102 329.16331482 C-229.09451523 328.21279739 -229.10435944 327.26227997 -229.11450195 326.28295898 C-229.12733719 325.20259872 -229.14017242 324.12223846 -229.15339661 323.00914001 C-229.16078354 321.82920975 -229.16817047 320.64927948 -229.17578125 319.43359375 C-229.183853 318.20834488 -229.19192474 316.98309601 -229.20024109 315.72071838 C-229.21411255 313.10703961 -229.2248209 310.49334248 -229.23266602 307.87963867 C-229.24137272 305.25061425 -229.2642562 302.62289588 -229.29418945 299.99389648 C-229.96896735 240.70768391 -209.50220804 189.48938722 -168.9375 146.4375 C-168.20917969 145.65503906 -167.48085937 144.87257812 -166.73046875 144.06640625 C-160.89529591 137.99306309 -154.44271688 132.85322964 -147.73291016 127.79296875 C-146.58207401 126.92412971 -145.4354877 126.04961531 -144.29443359 125.16796875 C-111.28718372 99.7078311 -67.51949989 84.99424789 -25.8125 85.375 C-24.37777344 85.38176758 -24.37777344 85.38176758 -22.9140625 85.38867188 C-20.58847242 85.40029983 -18.2630224 85.41663898 -15.9375 85.4375 C-15.94860306 84.52818726 -15.95970612 83.61887451 -15.97114563 82.68200684 C-16.07155145 74.09035328 -16.14756827 65.49889828 -16.19656086 56.90679169 C-16.2225959 52.49001427 -16.25788126 48.07372379 -16.31469727 43.65722656 C-16.36923634 39.39076488 -16.39896633 35.12476998 -16.41188622 30.85798645 C-16.42108704 29.23452919 -16.43905426 27.61109595 -16.46615028 25.98783875 C-16.71202068 10.64056779 -16.71202068 10.64056779 -12.25250244 4.78358459 C-8.49573338 0.93801838 -5.30024256 0.00682142 0 0 Z " fill="#2096F3" transform="translate(356.9375,-0.4375)"/>
<path d="M0 0 C1.73345644 -0.00457279 3.46691108 -0.00988158 5.20036316 -0.0158844 C8.8083744 -0.02475557 12.41616352 -0.02245777 16.02416992 -0.01245117 C20.63173786 -0.00091234 25.23854493 -0.02127815 29.84601307 -0.05036831 C33.41581522 -0.06875851 36.9854354 -0.06843322 40.55527306 -0.06273079 C42.2540259 -0.06257822 43.95279159 -0.0685687 45.65149879 -0.08102226 C63.99494917 -0.19669206 63.99494917 -0.19669206 71.54296875 7.18359375 C75.53968074 13.12156585 77.93832747 19.1452644 76.73046875 26.43359375 C74.57969174 33.94851105 70.57324539 38.39624804 64.04594421 42.4901123 C60.91932615 43.76410815 58.27628381 43.70062148 54.90161133 43.72070312 C54.22298035 43.72753616 53.54434937 43.7343692 52.84515381 43.7414093 C51.3747112 43.75497272 49.90422175 43.76404179 48.43372536 43.76911926 C46.09942536 43.77743486 43.76551165 43.79796751 41.43132019 43.82165527 C36.46859412 43.86983668 31.50582888 43.90275735 26.54296875 43.93359375 C20.80636827 43.96937615 15.06995496 44.01155252 9.33353233 44.0695343 C7.04653195 44.08943877 4.75967892 44.09789113 2.47261047 44.10583496 C-10.98426636 43.81465449 -10.98426636 43.81465449 -22.64453125 49.55859375 C-23.27101562 50.09742188 -23.8975 50.63625 -24.54296875 51.19140625 C-29.86033269 58.09676123 -29.69867039 65.58252387 -29.65048218 73.92077637 C-29.65516215 75.16745071 -29.65984212 76.41412505 -29.66466391 77.6985774 C-29.67453225 81.1427123 -29.67101784 84.5863537 -29.66170526 88.03045821 C-29.65490245 91.75104039 -29.66540208 95.47158023 -29.67364502 99.19215393 C-29.68697144 106.47430761 -29.68410949 113.75636842 -29.6754071 121.0385257 C-29.66862666 126.95789674 -29.66771539 132.87724179 -29.67097855 138.7966156 C-29.67143825 139.63970708 -29.67189794 140.48279855 -29.67237157 141.35143825 C-29.67333077 143.06426514 -29.67430341 144.77709202 -29.67528935 146.48991889 C-29.68384004 162.54386579 -29.67401414 178.59776126 -29.65788825 194.65169972 C-29.64448536 208.42098312 -29.64681354 222.19019063 -29.66064453 235.95947266 C-29.676706 251.95672686 -29.6830161 267.95393601 -29.67380774 283.95119715 C-29.67285211 285.65765539 -29.671909 287.36411364 -29.67097855 289.0705719 C-29.67051572 289.91013993 -29.67005289 290.74970797 -29.66957604 291.61471745 C-29.66698786 297.52566229 -29.67135346 303.43657851 -29.67841721 309.34751892 C-29.6868387 316.5528739 -29.68453843 323.75813085 -29.66857497 330.96347463 C-29.66070097 334.63840973 -29.6575857 338.31318149 -29.66752243 341.98811531 C-29.67813761 345.9743059 -29.66544616 349.96023015 -29.65048218 353.94641113 C-29.65717434 355.10439067 -29.66386651 356.26237021 -29.67076147 357.45544004 C-29.6149019 365.11995562 -29.01344758 371.18421915 -23.89453125 377.24609375 C-17.84184152 382.29000186 -13.491235 383.55679276 -5.7089119 383.56502151 C-5.04822755 383.56707415 -4.38754321 383.56912678 -3.70683813 383.57124162 C-1.48335279 383.5769156 0.74007069 383.57545388 2.96356201 383.57403564 C4.56998556 383.57661905 6.17640846 383.57963214 7.78283048 383.58303905 C12.20496518 383.59111515 16.62708365 383.59289896 21.04922485 383.59363651 C25.81554602 383.595486 30.58185875 383.60303279 35.34817505 383.60977173 C45.77376152 383.62335977 56.19934415 383.62938046 66.62493801 383.63378239 C73.13311024 383.63654393 79.64128098 383.64078112 86.14945221 383.64528656 C104.16415183 383.65747969 122.17885026 383.66777902 140.19355392 383.67116165 C141.34676933 383.67138122 142.49998474 383.67160078 143.68814607 383.671827 C145.42213653 383.67215442 145.42213653 383.67215442 147.1911571 383.67248845 C149.53368807 383.67293192 151.87621903 383.67337848 154.21875 383.67382812 C155.96171891 383.67416027 155.96171891 383.67416027 157.73989931 383.67449912 C176.57124993 383.67844776 195.40256186 383.6959036 214.23389754 383.71918765 C233.56179644 383.74289304 252.88967593 383.75536313 272.21758962 383.75652957 C283.07190765 383.75744677 293.92617527 383.76321047 304.78047943 383.78134918 C314.02258119 383.79673917 323.26461697 383.80187713 332.5067291 383.79361108 C337.22261823 383.78970072 341.93837445 383.79065303 346.65424728 383.80466843 C350.9722376 383.81738405 355.28999481 383.81623043 359.60798469 383.80407771 C361.16923758 383.80211666 362.73050684 383.80521798 364.29173669 383.81392208 C377.31082983 384.02103672 377.31082983 384.02103672 388.54296875 378.05859375 C393.79401192 371.75734195 394.85529977 367.32718697 394.8550415 359.22433472 C394.85645165 358.4970168 394.8578618 357.76969889 394.85931468 357.02034104 C394.86296552 354.5823889 394.85963203 352.14449502 394.85644531 349.70654297 C394.85784026 347.95865331 394.85973969 346.21076398 394.86210632 344.46287537 C394.86660311 340.6973328 394.8684594 336.93180113 394.86856842 333.16625595 C394.86970926 327.2066853 394.882552 321.24717653 394.89813232 315.28762817 C394.90070518 314.28144688 394.90327803 313.27526558 394.90592885 312.23859394 C394.9111955 310.18096029 394.91648098 308.12332669 394.92178488 306.06569314 C394.95687666 292.1922234 394.98344881 278.31883032 394.98095703 264.4453125 C394.97936646 255.08634761 394.99545123 245.72759364 395.03166366 236.36869633 C395.05009421 231.41859031 395.05949198 226.46883631 395.04718781 221.51870346 C395.03571565 216.8580166 395.04753748 212.19795885 395.07682228 207.53735542 C395.08343968 205.83225324 395.08163595 204.12709305 395.07052422 202.42201424 C395.01634923 193.3522305 394.97019774 184.99692431 400.73046875 177.43359375 C406.9692869 171.55868525 412.9448971 171.02628054 421.203125 171.0859375 C427.49811023 171.70637348 430.92104308 174.48131869 435.10546875 178.99609375 C438.31188239 183.80571421 439.02279894 187.26069971 438.99789429 193.04026794 C439.0024254 193.81038824 439.00695651 194.58050853 439.01162493 195.3739658 C439.02429428 197.95697229 439.02264689 200.53976859 439.02099609 203.12280273 C439.0269801 204.97420015 439.03378535 206.82559507 439.04135132 208.67698669 C439.0590398 213.71053333 439.06370813 218.74401199 439.06498289 223.7775867 C439.06640439 226.9255594 439.07067414 230.07351482 439.07597733 233.22148323 C439.09449284 244.21366599 439.10264676 255.20580021 439.10107422 266.19799805 C439.09987508 276.42598968 439.12092882 286.65376952 439.15256155 296.88170761 C439.17877805 305.67343617 439.18943914 314.46509585 439.1881634 323.25686318 C439.18765499 328.50269734 439.19327012 333.74834366 439.2145195 338.99413872 C439.23399033 343.93624077 439.23396618 348.87797766 439.21948624 353.82009315 C439.21740739 355.62554334 439.22204336 357.4310169 439.23420715 359.23642731 C439.35553612 378.50670988 434.58812349 394.91624143 421.06030273 409.32080078 C408.96672462 421.52721126 393.16341987 427.59096 376.20384203 427.70188318 C373.9077139 427.70590135 371.61172012 427.7001679 369.31559753 427.69429016 C367.64171167 427.69731324 365.96782719 427.7012035 364.29394513 427.70588273 C359.70838375 427.71615142 355.12290066 427.71398377 350.53733289 427.70970213 C345.5862865 427.70723285 340.63525886 427.71625161 335.68421936 427.72373962 C325.9898575 427.7364832 316.29552335 427.73828072 306.60115453 427.73593936 C298.72008023 427.7341556 290.83901434 427.7359071 282.95794106 427.7401638 C281.83582848 427.74075899 280.7137159 427.74135418 279.55759991 427.74196741 C277.27794049 427.74317917 274.99828107 427.74439331 272.71862165 427.74560978 C251.34386887 427.75648409 229.96913188 427.75432339 208.59437821 427.74822494 C189.04826126 427.74305636 169.50219416 427.75430986 149.95608708 427.77332316 C129.87767915 427.79270424 109.79929481 427.80095705 89.72087747 427.7971999 C78.45179721 427.79528821 67.18275937 427.79777231 55.91368675 427.81191444 C46.31974573 427.82383267 36.72587324 427.82522817 27.13193127 427.81312428 C22.23931876 427.80723862 17.34683158 427.80612754 12.45422745 427.81812668 C7.97030372 427.8289955 3.48660981 427.82587021 -0.99730321 427.81186499 C-2.61432976 427.80922082 -4.23137437 427.81157578 -5.84838317 427.81960086 C-25.00213367 427.90801718 -41.1556342 423.05433275 -55.25805664 409.71289062 C-66.95345658 397.99941433 -73.45261325 382.44673917 -73.54634225 366.03846967 C-73.54324505 364.81843673 -73.54014785 363.59840379 -73.53695679 362.34140015 C-73.5414879 361.02953881 -73.54601901 359.71767747 -73.55068743 358.36606276 C-73.56287904 354.73983385 -73.56266151 351.11369746 -73.56029868 347.48745275 C-73.55988953 343.57043756 -73.57093912 339.65345164 -73.58041382 335.7364502 C-73.59700447 328.06729259 -73.60252252 320.39816573 -73.60363857 312.72899167 C-73.60459011 306.49169298 -73.60870568 300.25440441 -73.61503983 294.01710892 C-73.63264813 276.31660411 -73.64187952 258.61612351 -73.64037888 240.91560988 C-73.64029897 239.96199866 -73.64021905 239.00838744 -73.64013672 238.02587891 C-73.64005496 237.07109731 -73.6399732 236.11631571 -73.63988896 235.13260134 C-73.63907651 219.66812814 -73.65820482 204.20375245 -73.68641345 188.73930745 C-73.71517776 172.84422521 -73.72895175 156.94919047 -73.7272259 141.05408156 C-73.72656315 132.13680568 -73.73200472 123.21963198 -73.753582 114.30237961 C-73.77184068 106.70815264 -73.77610292 99.11407416 -73.76256315 91.51983468 C-73.75605662 87.64968148 -73.7558317 83.77981275 -73.77326965 79.90968704 C-73.78910938 76.35752226 -73.78602741 72.80586488 -73.76870139 69.25371166 C-73.76422681 67.37951841 -73.77920302 65.50530874 -73.79518068 63.63117826 C-73.65696536 46.43096963 -67.19488989 30.84078506 -55.26953125 18.43359375 C-38.55420223 3.80176183 -21.53008326 -0.05026206 0 0 Z " fill="#5F7C8B" transform="translate(73.26953125,84.56640625)"/>
</svg>
